<?xml version="1.0" encoding="UTF-8"?>
<svg width="186px" height="74px" viewBox="0 0 186 74" version="1.1" xmlns="http://www.w3.org/2000/svg" xmlns:xlink="http://www.w3.org/1999/xlink">
    <title>Combined Shape Copy 6</title>
    <g id="Page-1" stroke="none" stroke-width="1" fill="none" fill-rule="evenodd">
        <path d="M132.952291,1 L132.952291,25.0000965 L184.17353,25.0000965 L184.17353,49.0001931 L113.827716,49.0001931 L113.827716,73 L53.9482111,73 L53.9482111,1 L132.952291,1 Z M76.8914034,53.6805392 C73.2958307,53.6805392 70.8986859,56.3439342 70.8986859,60.6894733 L70.8986859,60.6894733 L70.8986859,61.4100613 C70.8986859,65.7156321 73.2559601,68.3987216 76.8914034,68.3987216 C80.6268121,68.3987216 82.8644747,65.65539 82.8644747,61.3501088 L82.8644747,61.3501088 L82.8644747,60.6292312 C82.8644747,56.32395 80.5072004,53.6805392 76.8914034,53.6805392 Z M102.34124,53.6805392 C98.7456675,53.6805392 96.3485226,56.3439342 96.3485226,60.6894733 L96.3485226,60.6894733 L96.3485226,61.4100613 C96.3485226,65.7156321 98.705508,68.3987216 102.34124,68.3987216 C106.076649,68.3987216 108.314023,65.65539 108.314023,61.3501088 L108.314023,61.3501088 L108.314023,60.6292312 C108.314023,56.32395 105.956748,53.6805392 102.34124,53.6805392 Z M64.2463706,53.6805392 C61.2300766,53.6805392 59.3524046,55.4828779 59.1726982,58.6067772 L59.1726982,58.6067772 L61.6097136,58.6067772 C61.8495147,56.5843232 62.7483357,55.7632353 64.1666295,55.7632353 C65.5447639,55.7632353 66.3040379,56.6043074 66.3040379,57.9458521 C66.3040379,59.3076706 65.484958,60.5692788 64.126759,62.0110339 L64.126759,62.0110339 L58.7329664,67.7178124 L58.7329664,68.1985905 L69.0605955,68.1985905 L69.0605955,66.1358786 L62.9881368,66.1358786 L66.1639131,63.032253 C67.8621676,61.3900771 68.9606302,59.768175 68.9606302,57.9058838 C68.9606302,55.3826675 67.2028589,53.6805392 64.2463706,53.6805392 Z M89.6962074,53.6805392 C86.6799133,53.6805392 84.8022414,55.4828779 84.622535,58.6067772 L84.622535,58.6067772 L87.0595503,58.6067772 C87.2993515,56.5843232 88.1981725,55.7632353 89.6164663,55.7632353 C90.9948896,55.7632353 91.7538747,56.6043074 91.7538747,57.9458521 C91.7538747,59.3076706 90.9347948,60.5692788 89.5765957,62.0110339 L89.5765957,62.0110339 L84.1828032,67.7178124 L84.1828032,68.1985905 L94.5104323,68.1985905 L94.5104323,66.1358786 L88.4379736,66.1358786 L91.6140388,63.032253 C93.3120044,61.3900771 94.410467,59.768175 94.410467,57.9058838 C94.410467,55.3826675 92.6526956,53.6805392 89.6962074,53.6805392 Z M102.361262,55.7631774 C104.498671,55.7631774 105.657228,57.6054844 105.657228,60.6491575 L105.657228,60.6491575 L105.657228,61.3500509 C105.657228,64.5941447 104.598636,66.2762889 102.401133,66.2762889 C100.264013,66.2762889 99.0254258,64.634113 99.0254258,61.3900192 L99.0254258,61.3900192 L99.0254258,60.6691416 C99.0254258,57.4855795 100.203919,55.7631774 102.361262,55.7631774 Z M76.9114832,55.7631774 C79.0488916,55.7631774 80.207449,57.6054844 80.207449,60.6491575 L80.207449,60.6491575 L80.207449,61.3500509 C80.207449,64.5941447 79.1488569,66.2762889 76.9513537,66.2762889 C74.8142343,66.2762889 73.5756468,64.634113 73.5756468,61.3900192 L73.5756468,61.3900192 L73.5756468,60.6691416 C73.5756468,57.4855795 74.7541395,55.7631774 76.9114832,55.7631774 Z M47.0569614,13.3746208 L47.0569614,38.5294537 C47.0569614,46.1900449 43.4628332,49.182744 36.7307769,48.9915912 L36.7307769,43.4875505 C39.6895765,43.4875505 41.2768868,42.2659107 41.2768868,37.7998874 L41.2768868,13.3746208 L47.0569614,13.3746208 Z M121.079245,29.6497424 C116.844588,29.6497424 113.84794,32.7536575 113.84794,36.9387442 L113.84794,36.9387442 L113.84794,37.0991967 C113.84794,41.2243309 116.704752,44.3682144 121.079245,44.3682144 C125.414156,44.3682144 128.270679,41.2243309 128.270679,37.0389546 L128.270679,37.0389546 L128.270679,36.8787918 C128.270679,32.6737209 125.334126,29.6497424 121.079245,29.6497424 Z M152.002904,29.8501631 L149.326088,29.8501631 L149.326088,38.7210988 C149.326088,42.4057129 151.36382,44.3682144 154.939457,44.3682144 C158.714736,44.3682144 160.732244,42.3057921 160.732244,38.560936 L160.732244,38.560936 L160.732244,29.8501631 L158.055717,29.8501631 L158.055717,38.3408207 C158.055717,41.3042675 157.016771,42.2255659 154.959392,42.2255659 C152.841919,42.2255659 152.002904,41.1441047 152.002904,38.5209677 L152.002904,38.5209677 L152.002904,29.8501631 Z M135.14286,29.6700161 C132.166726,29.6700161 130.168864,31.4320969 130.168864,33.7748766 C130.168864,36.4582557 131.787089,37.499459 135.202955,37.9602529 C137.52007,38.3408207 138.179379,38.8412933 138.179379,40.1628539 C138.179379,41.4844145 137.060692,42.3657446 135.482627,42.3657446 C133.065547,42.3657446 132.485979,41.1640889 132.306562,39.7226234 L132.306562,39.7226234 L129.749646,39.7226234 C129.949287,42.425697 131.587158,44.3682144 135.482627,44.3682144 C138.638757,44.3682144 140.736295,42.425697 140.736295,39.9427386 C140.736295,37.0789229 138.99817,36.1179459 135.642398,35.6574416 C133.165512,35.296858 132.68591,34.7161591 132.68591,33.5547613 C132.68591,32.453316 133.524925,31.672486 135.14286,31.672486 C136.78102,31.672486 137.639971,32.3131373 137.899707,33.8151345 L137.899707,33.8151345 L140.336722,33.8151345 C140.057051,31.071803 138.219249,29.6700161 135.14286,29.6700161 Z M64.5858482,29.6700161 C61.6097136,29.6700161 59.612141,31.4320969 59.612141,33.7748766 C59.612141,36.4582557 61.2300766,37.499459 64.6459429,37.9602529 C66.9630577,38.3408207 67.6223664,38.8412933 67.6223664,40.1628539 C67.6223664,41.4844145 66.5036796,42.3657446 64.9256146,42.3657446 C62.5085345,42.3657446 61.9292558,41.1640889 61.7495494,39.7226234 L61.7495494,39.7226234 L59.1926335,39.7226234 C59.3922752,42.425697 61.030146,44.3682144 64.9256146,44.3682144 C68.0817446,44.3682144 70.1792824,42.425697 70.1792824,39.9427386 C70.1792824,37.0789229 68.4411574,36.1179459 65.0853858,35.6574416 C62.6084998,35.296858 62.1288975,34.7161591 62.1288975,33.5547613 C62.1288975,32.453316 62.9679127,31.672486 64.5858482,31.672486 C66.2240079,31.672486 67.0829583,32.3131373 67.3426947,33.8151345 L67.3426947,33.8151345 L69.7797101,33.8151345 C69.5000384,31.071803 67.662237,29.6700161 64.5858482,29.6700161 Z M88.0785608,29.8501631 L84.5228586,29.8501631 L84.5228586,44.1677937 L86.9200034,44.1677937 L86.9200034,33.3543406 L91.2543371,44.1677937 L92.1135764,44.1677937 L96.368169,33.3543406 L96.368169,44.1677937 L99.0250502,44.1677937 L99.0250502,29.8501631 L95.5095075,29.8501631 L91.8339047,39.622413 L88.0785608,29.8501631 Z M167.444654,29.8501631 L163.888952,29.8501631 L163.888952,44.1677937 L166.286097,44.1677937 L166.286097,33.3543406 L170.620719,44.1677937 L171.47967,44.1677937 L175.734551,33.3543406 L175.734551,44.1677937 L178.391432,44.1677937 L178.391432,29.8501631 L174.875601,29.8501631 L171.199998,39.622413 L167.444654,29.8501631 Z M146.069992,29.8501631 L143.393176,29.8501631 L143.393176,44.1677937 L146.069992,44.1677937 L146.069992,29.8501631 Z M106.896307,29.8501631 L102.301948,29.8501631 L102.301948,44.1677937 L104.958829,44.1677937 L104.958829,38.7210988 L106.956112,38.7210988 C110.012566,38.7210988 112.189845,37.3795541 112.189845,34.3558651 L112.189845,34.3558651 L112.189845,34.2756389 C112.189845,31.2719341 110.092596,29.8501631 106.896307,29.8501631 L106.896307,29.8501631 Z M73.5957266,29.8501631 L70.6591736,29.8501631 L75.3933685,37.9602529 L75.3933685,44.1677937 L78.070185,44.1677937 L78.070185,37.9802371 L82.5449324,29.8501631 L79.947857,29.8501631 L76.8116623,35.7773465 L73.5957266,29.8501631 Z M121.07936,31.7725805 C123.876078,31.7725805 125.513948,33.9551974 125.513948,36.8989497 L125.513948,36.8989497 L125.513948,37.0591125 C125.513948,40.1630277 123.815983,42.22545 121.119231,42.22545 C118.522444,42.22545 116.624837,40.202996 116.624837,37.0790967 L116.624837,37.0790967 L116.624837,36.9189339 C116.624837,33.8350028 118.282643,31.7725805 121.07936,31.7725805 Z M13.4893065,12.840233 C18.4890162,12.840233 21.9043047,14.9704276 24.1280993,18.8102809 L19.3265867,21.6654079 C18.1423157,19.4251556 16.1739238,18.1229999 13.4133213,18.1229999 C9.77701127,18.1229999 6.85634874,21.1539295 6.85634874,25.2457568 C6.85634874,29.1316605 9.71951677,32.2196463 13.3751843,32.2196463 C16.2192838,32.2196463 18.1766969,30.7689127 19.360679,28.6392973 L24.1509238,31.5442399 C21.893037,35.2847516 18.4774595,37.5024131 13.2685739,37.5024131 C6.41835048,37.5024131 1,32.1431852 1,25.2341718 C1,18.0584134 6.41835048,12.840233 13.4893065,12.840233 Z M34.3857816,13.3746497 L34.3857816,36.9449422 L28.605707,36.9449422 L28.605707,13.3746497 L34.3857816,13.3746497 Z M106.896335,31.9127302 C108.594301,31.9127302 109.593087,32.5736554 109.593087,34.2757837 L109.593087,34.2757837 L109.593087,34.3557203 C109.593087,35.9376541 108.654396,36.7987104 106.896335,36.7987104 L106.896335,36.7987104 L104.958569,36.7987104 L104.958569,31.9127302 Z M77.091623,5.61923515 C72.8566768,5.61923515 69.860318,8.72315032 69.860318,12.908237 L69.860318,12.908237 L69.860318,13.0683999 C69.860318,17.1935341 72.7168409,20.3374176 77.091623,20.3374176 C81.4262456,20.3374176 84.2827685,17.1935341 84.2827685,13.0084474 L84.2827685,13.0084474 L84.2827685,12.8479949 C84.2827685,8.64292409 81.3465045,5.61923515 77.091623,5.61923515 Z M93.2524875,5.599251 C89.077636,5.599251 86.1211477,8.64292409 86.1211477,12.908237 L86.1211477,12.908237 L86.1211477,13.0683999 C86.1211477,17.2937445 88.6780637,20.3374176 93.2524875,20.3374176 C97.287792,20.3374176 99.7646779,17.9343958 99.7646779,13.9694244 L99.7646779,13.9694244 L99.7646779,12.6478638 L93.5520944,12.6478638 L93.5520944,14.6503337 L97.1476672,14.6503337 C97.0679261,16.6328194 95.9691745,18.2550111 93.292358,18.2550111 C90.2962881,18.2550111 88.8779943,16.1523309 88.8779943,13.088384 L88.8779943,13.088384 L88.8779943,12.9282212 C88.8779943,9.7843377 90.4959298,7.70164161 93.292358,7.70164161 C95.1503836,7.70164161 96.4288416,8.52272956 96.7483838,10.424989 L96.7483838,10.424989 L99.4049762,10.424989 C99.0256281,7.00103782 96.308941,5.599251 93.2524875,5.599251 Z M108.674302,5.81965591 L105.19863,5.81965591 L100.424276,20.1372865 L102.921386,20.1372865 L104.039784,16.5928511 L109.493382,16.5928511 L110.632004,20.1372865 L113.388562,20.1372865 L108.674302,5.81965591 Z M118.742484,5.81965591 L115.56613,5.81965591 L115.56613,20.1372865 L117.983499,20.1372865 L117.983499,9.16367052 L124.415659,20.1372865 L127.172217,20.1372865 L127.172217,5.81965591 L124.755137,5.81965591 L124.755137,16.172315 L118.742484,5.81965591 Z M62.7284004,5.81965591 L60.0715192,5.81965591 L60.0715192,20.1372865 L68.8207944,20.1372865 L68.8207944,18.0146221 L62.7284004,18.0146221 L62.7284004,5.81965591 Z M77.0916519,7.74195747 C79.888369,7.74195747 81.5259508,9.92457431 81.5259508,12.8683266 L81.5259508,12.8683266 L81.5259508,13.0284895 C81.5259508,16.1324047 79.8282742,18.194827 77.1315224,18.194827 C74.5347359,18.194827 72.6368398,16.172373 72.6368398,13.0484736 L72.6368398,13.0484736 L72.6368398,12.8883108 C72.6368398,9.80437978 74.2949348,7.74195747 77.0916519,7.74195747 Z M106.776637,8.00230172 L108.874175,14.6503626 L104.659164,14.6503626 L106.776637,8.00230172 Z M44.2088171,1.00008689 C46.2843972,1.00008689 47.8376153,2.55711292 47.8376153,4.63778163 C47.8376153,6.71787109 46.2843972,8.32471269 44.2088171,8.32471269 C42.1338148,8.32471269 40.5309029,6.71787109 40.5309029,4.63778163 C40.5309029,2.55711292 42.1338148,1.00008689 44.2088171,1.00008689 Z M31.5145239,1.00011585 C33.5898151,1.00011585 35.143611,2.55714188 35.143611,4.63781059 C35.143611,6.71790006 33.5898151,8.32474165 31.5145239,8.32474165 C29.4395216,8.32474165 27.8363208,6.71790006 27.8363208,4.63781059 C27.8363208,2.55714188 29.4395216,1.00011585 31.5145239,1.00011585 Z" id="Combined-Shape-Copy-6" fill="#FA7935"></path>
    </g>
</svg>